<svg id="visual" viewBox="0 0 900 600" width="900" height="600" xmlns="http://www.w3.org/2000/svg" xmlns:xlink="http://www.w3.org/1999/xlink" version="1.1"><rect x="0" y="0" width="900" height="600" fill="#1f2937"></rect><path d="M0 235L30 256.2C60 277.3 120 319.7 180 324.7C240 329.7 300 297.3 360 306.7C420 316 480 367 540 355.2C600 343.3 660 268.7 720 249.2C780 229.7 840 265.3 870 283.2L900 301L900 601L870 601C840 601 780 601 720 601C660 601 600 601 540 601C480 601 420 601 360 601C300 601 240 601 180 601C120 601 60 601 30 601L0 601Z" fill="#ffffff"></path><path d="M0 416L30 420.7C60 425.3 120 434.7 180 431.8C240 429 300 414 360 407.8C420 401.7 480 404.3 540 396C600 387.7 660 368.3 720 377.2C780 386 840 423 870 441.5L900 460L900 601L870 601C840 601 780 601 720 601C660 601 600 601 540 601C480 601 420 601 360 601C300 601 240 601 180 601C120 601 60 601 30 601L0 601Z" fill="#e4e6f8"></path><path d="M0 315L30 316.8C60 318.7 120 322.3 180 330.2C240 338 300 350 360 374.8C420 399.7 480 437.3 540 442.5C600 447.7 660 420.3 720 416C780 411.7 840 430.3 870 439.7L900 449L900 601L870 601C840 601 780 601 720 601C660 601 600 601 540 601C480 601 420 601 360 601C300 601 240 601 180 601C120 601 60 601 30 601L0 601Z" fill="#cacef1"></path><path d="M0 459L30 445.2C60 431.3 120 403.7 180 389.7C240 375.7 300 375.3 360 392.8C420 410.3 480 445.7 540 444.8C600 444 660 407 720 406.3C780 405.7 840 441.3 870 459.2L900 477L900 601L870 601C840 601 780 601 720 601C660 601 600 601 540 601C480 601 420 601 360 601C300 601 240 601 180 601C120 601 60 601 30 601L0 601Z" fill="#aeb6e9"></path><path d="M0 462L30 473.2C60 484.3 120 506.7 180 519.7C240 532.7 300 536.3 360 540.3C420 544.3 480 548.7 540 551C600 553.3 660 553.7 720 549.3C780 545 840 536 870 531.5L900 527L900 601L870 601C840 601 780 601 720 601C660 601 600 601 540 601C480 601 420 601 360 601C300 601 240 601 180 601C120 601 60 601 30 601L0 601Z" fill="#919fe2"></path><path d="M0 505L30 508.3C60 511.7 120 518.3 180 517.7C240 517 300 509 360 516.3C420 523.7 480 546.3 540 553.7C600 561 660 553 720 552C780 551 840 557 870 560L900 563L900 601L870 601C840 601 780 601 720 601C660 601 600 601 540 601C480 601 420 601 360 601C300 601 240 601 180 601C120 601 60 601 30 601L0 601Z" fill="#7289da"></path></svg>